<svg width="57" height="56" viewBox="0 0 57 56" fill="none" xmlns="http://www.w3.org/2000/svg">
<rect x="0.5" width="56" height="56" rx="28" fill="#222222"/>
<path d="M38.554 33.9593C38.1772 34.8298 37.7312 35.6311 37.2144 36.3678C36.51 37.3721 35.9333 38.0673 35.4888 38.4534C34.7997 39.087 34.0615 39.4115 33.2709 39.43C32.7034 39.43 32.019 39.2685 31.2223 38.9409C30.423 38.6148 29.6884 38.4534 29.0168 38.4534C28.3124 38.4534 27.5569 38.6148 26.7488 38.9409C25.9395 39.2685 25.2875 39.4392 24.7891 39.4561C24.031 39.4884 23.2754 39.1547 22.5211 38.4534C22.0397 38.0335 21.4376 37.3137 20.7162 36.294C19.9423 35.2051 19.306 33.9423 18.8076 32.5028C18.2737 30.9478 18.0061 29.4421 18.0061 27.9844C18.0061 26.3145 18.3669 24.8743 19.0896 23.6675C19.6576 22.698 20.4133 21.9333 21.359 21.372C22.3047 20.8106 23.3266 20.5245 24.427 20.5062C25.0292 20.5062 25.8188 20.6925 26.8 21.0585C27.7785 21.4258 28.4068 21.6121 28.6823 21.6121C28.8882 21.6121 29.5862 21.3943 30.7694 20.9601C31.8883 20.5574 32.8326 20.3907 33.6062 20.4564C35.7026 20.6256 37.2775 21.4519 38.3249 22.9407C36.45 24.0767 35.5226 25.6678 35.5411 27.7089C35.558 29.2988 36.1347 30.6218 37.2683 31.6722C37.782 32.1598 38.3556 32.5366 38.9939 32.8042C38.8555 33.2056 38.7094 33.5901 38.554 33.9593ZM33.7462 15.0401C33.7462 16.2862 33.2909 17.4497 32.3835 18.5266C31.2884 19.8069 29.9639 20.5467 28.5275 20.4299C28.5092 20.2804 28.4986 20.1231 28.4986 19.9578C28.4986 18.7615 29.0194 17.4812 29.9442 16.4345C30.4059 15.9045 30.9931 15.4638 31.7052 15.1122C32.4158 14.7659 33.0879 14.5744 33.72 14.5416C33.7385 14.7082 33.7462 14.8748 33.7462 15.0401V15.0401Z" fill="white"/>
</svg>
