<svg width="10" height="14" viewBox="0 0 10 14" fill="none" xmlns="http://www.w3.org/2000/svg">
<path fill-rule="evenodd" clip-rule="evenodd" d="M0.585786 0.585787C0.960859 0.210714 1.46957 0 2 0H8C8.53043 0 9.03914 0.210714 9.41421 0.585787C9.78929 0.960859 10 1.46957 10 2V13.5C10 13.6969 9.88444 13.8755 9.70483 13.9561C9.52521 14.0368 9.31498 14.0045 9.16782 13.8737L5 10.169L0.832182 13.8737C0.68502 14.0045 0.474788 14.0368 0.295172 13.9561C0.115556 13.8755 0 13.6969 0 13.5V2C0 1.46957 0.210714 0.960859 0.585786 0.585787ZM2 1C1.73478 1 1.48043 1.10536 1.29289 1.29289C1.10536 1.48043 1 1.73478 1 2V12.3866L4.66782 9.1263C4.85726 8.9579 5.14274 8.9579 5.33218 9.1263L9 12.3866V2C9 1.73478 8.89464 1.48043 8.70711 1.29289C8.51957 1.10536 8.26522 1 8 1H2Z" fill="#E3E3E3"/>
</svg>
