<svg width="10" height="14" viewBox="0 0 10 14" fill="none" xmlns="http://www.w3.org/2000/svg">
<path d="M9.5 14C9.37771 14.0004 9.25953 13.9559 9.16781 13.875L5 10.1691L0.832189 13.875C0.760064 13.9391 0.670927 13.981 0.575533 13.9956C0.480139 14.0101 0.382564 13.9968 0.294583 13.9572C0.206601 13.9175 0.131973 13.8533 0.0797015 13.7721C0.0274303 13.691 -0.000249558 13.5965 1.6954e-06 13.5V2C0.000580713 1.46974 0.21148 0.961373 0.586428 0.586426C0.961375 0.211479 1.46975 0.000579017 2 0H8C8.53026 0.000579017 9.03863 0.211479 9.41358 0.586426C9.78852 0.961373 9.99942 1.46974 10 2V13.5C10 13.6326 9.94732 13.7598 9.85356 13.8536C9.75979 13.9473 9.63261 14 9.5 14Z" fill="#03C75A"/>
</svg>
