<svg width="33" height="33" viewBox="0 0 33 33" fill="none" xmlns="http://www.w3.org/2000/svg">
<path d="M28.5 3.5H4.5C3.39543 3.5 2.5 4.39543 2.5 5.5V6.5C2.5 7.60457 3.39543 8.5 4.5 8.5H28.5C29.6046 8.5 30.5 7.60457 30.5 6.5V5.5C30.5 4.39543 29.6046 3.5 28.5 3.5Z" fill="white"/>
<path d="M5.15309 10.5C5.08283 10.4996 5.01327 10.5141 4.94896 10.5424C4.88465 10.5707 4.82703 10.6122 4.77985 10.6643C4.73267 10.7164 4.697 10.7778 4.67516 10.8446C4.65332 10.9114 4.6458 10.982 4.65309 11.0519L6.29746 26.8369C6.29713 26.8415 6.29713 26.8461 6.29746 26.8506C6.38338 27.5807 6.73439 28.2539 7.28384 28.7423C7.8333 29.2307 8.54295 29.5003 9.27809 29.5H23.7212C24.4561 29.5 25.1655 29.2302 25.7147 28.7418C26.2639 28.2535 26.6147 27.5805 26.7006 26.8506V26.8375L28.3425 11.0519C28.3498 10.982 28.3422 10.9114 28.3204 10.8446C28.2986 10.7778 28.2629 10.7164 28.2157 10.6643C28.1685 10.6122 28.1109 10.5707 28.0466 10.5424C27.9823 10.5141 27.9127 10.4996 27.8425 10.5H5.15309ZM20.7068 21.7931C20.8019 21.8855 20.8777 21.9958 20.9297 22.1178C20.9817 22.2397 21.009 22.3707 21.01 22.5033C21.0109 22.6358 20.9855 22.7672 20.9352 22.8899C20.8849 23.0125 20.8107 23.1239 20.7169 23.2176C20.6232 23.3113 20.5117 23.3854 20.3891 23.4357C20.2664 23.4859 20.135 23.5113 20.0025 23.5103C19.8699 23.5093 19.7389 23.482 19.617 23.4299C19.4951 23.3778 19.3848 23.302 19.2925 23.2069L16.5 20.4144L13.7068 23.2069C13.5184 23.3899 13.2656 23.4915 13.0029 23.4896C12.7402 23.4878 12.4888 23.3826 12.303 23.1969C12.1172 23.0112 12.012 22.7599 12.01 22.4972C12.008 22.2345 12.1095 21.9816 12.2925 21.7931L15.0856 19L12.2925 16.2069C12.1095 16.0184 12.008 15.7655 12.01 15.5028C12.012 15.2401 12.1172 14.9888 12.303 14.8031C12.4888 14.6174 12.7402 14.5122 13.0029 14.5104C13.2656 14.5085 13.5184 14.6101 13.7068 14.7931L16.5 17.5856L19.2925 14.7931C19.4809 14.6101 19.7337 14.5085 19.9964 14.5104C20.2591 14.5122 20.5105 14.6174 20.6963 14.8031C20.8821 14.9888 20.9873 15.2401 20.9893 15.5028C20.9913 15.7655 20.8898 16.0184 20.7068 16.2069L17.9137 19L20.7068 21.7931Z" fill="white"/>
</svg>
