<svg width="24" height="24" viewBox="0 0 24 24" fill="none" xmlns="http://www.w3.org/2000/svg">
<path fill-rule="evenodd" clip-rule="evenodd" d="M8.25 21C8.25 20.5858 8.58579 20.25 9 20.25H15C15.4142 20.25 15.75 20.5858 15.75 21C15.75 21.4142 15.4142 21.75 15 21.75H9C8.58579 21.75 8.25 21.4142 8.25 21Z" fill="#E4BD58"/>
<path fill-rule="evenodd" clip-rule="evenodd" d="M6 9C6.41421 9 6.75 9.33579 6.75 9.75V11.25C6.75 14.1358 9.11421 16.5 12 16.5C14.8858 16.5 17.25 14.1358 17.25 11.25V9.75C17.25 9.33579 17.5858 9 18 9C18.4142 9 18.75 9.33579 18.75 9.75V11.25C18.75 14.9642 15.7142 18 12 18C8.28579 18 5.25 14.9642 5.25 11.25V9.75C5.25 9.33579 5.58579 9 6 9Z" fill="#E4BD58"/>
<path fill-rule="evenodd" clip-rule="evenodd" d="M12 16.5C12.4142 16.5 12.75 16.8358 12.75 17.25V21C12.75 21.4142 12.4142 21.75 12 21.75C11.5858 21.75 11.25 21.4142 11.25 21V17.25C11.25 16.8358 11.5858 16.5 12 16.5Z" fill="#E4BD58"/>
<path fill-rule="evenodd" clip-rule="evenodd" d="M12.0019 2.25004C14.1027 2.25102 15.75 3.89895 15.75 6.00004V11.2032C15.75 13.2973 14.0624 15 12 15C9.93171 15 8.25004 13.2538 8.25004 11.2032V6.00182C8.24782 5.50885 8.34321 5.02031 8.53072 4.56437C8.71848 4.10782 8.99489 3.69302 9.34396 3.34396C9.69302 2.99489 10.1078 2.71848 10.5644 2.53072C11.0203 2.3432 11.5089 2.24781 12.0019 2.25004ZM11.9963 3.75003C11.7009 3.74854 11.4081 3.80562 11.1349 3.91798C10.8617 4.03034 10.6135 4.19574 10.4046 4.40462C10.1957 4.6135 10.0303 4.86171 9.91798 5.13491C9.80562 5.4081 9.74854 5.70086 9.75003 5.99626L9.75004 6.00004V11.2032C9.75004 12.4526 10.7871 13.5 12 13.5C13.2189 13.5 14.25 12.484 14.25 11.2032V6.00004C14.25 4.72675 13.2733 3.75004 12 3.75004L11.9963 3.75003Z" fill="#E4BD58"/>
</svg>
