<svg width="24" height="24" viewBox="0 0 24 24" fill="none" xmlns="http://www.w3.org/2000/svg">
<path d="M3.0379 10.2825L12.1671 3.05047C12.2042 3.02107 12.2568 3.02173 12.2932 3.05206L20.964 10.2825C20.9868 10.3015 21 10.3297 21 10.3593V20.9C21 20.9552 20.9552 21 20.9 21H14.1769C14.1217 21 14.0769 20.9552 14.0769 20.9V16.0375C14.0769 15.9823 14.0322 15.9375 13.9769 15.9375H10.0231C9.96785 15.9375 9.92308 15.9823 9.92308 16.0375V20.9C9.92308 20.9552 9.87831 21 9.82308 21H3.1C3.04477 21 3 20.9552 3 20.9V10.3609C3 10.3303 3.01396 10.3014 3.0379 10.2825Z" stroke="#AAAAAA" stroke-width="1.5"/>
</svg>
