<svg width="25" height="24" viewBox="0 0 25 24" fill="none" xmlns="http://www.w3.org/2000/svg">
<path fill-rule="evenodd" clip-rule="evenodd" d="M5.87868 2.37868C6.44129 1.81607 7.20435 1.5 8 1.5H17C17.7956 1.5 18.5587 1.81607 19.1213 2.37868C19.6839 2.94129 20 3.70435 20 4.5V21.75C20 22.0453 19.8267 22.3132 19.5572 22.4342C19.2878 22.5552 18.9725 22.5068 18.7517 22.3106L12.5 16.7535L6.24827 22.3106C6.02753 22.5068 5.71218 22.5552 5.44276 22.4342C5.17333 22.3132 5 22.0453 5 21.75V4.5C5 3.70435 5.31607 2.94129 5.87868 2.37868ZM8 3C7.60218 3 7.22064 3.15804 6.93934 3.43934C6.65804 3.72064 6.5 4.10218 6.5 4.5V20.0799L12.0017 15.1894C12.2859 14.9369 12.7141 14.9369 12.9983 15.1894L18.5 20.0799V4.5C18.5 4.10218 18.342 3.72064 18.0607 3.43934C17.7794 3.15804 17.3978 3 17 3H8Z" fill="#AAAAAA"/>
</svg>
